<?xml version="1.0" encoding="iso-8859-1"?>
<!-- Generator: Adobe Illustrator 19.0.0, SVG Export Plug-In . SVG Version: 6.00 Build 0)  -->
<svg version="1.1" id="Capa_1" xmlns="http://www.w3.org/2000/svg" xmlns:xlink="http://www.w3.org/1999/xlink" x="0px" y="0px"
	 viewBox="0 0 512 512" style="enable-background:new 0 0 512 512;" xml:space="preserve">
<g>
	<g>
		<path d="M443.862,161.773l23.956-23.956c17.544-17.544,17.544-46.091,0-63.635c-17.545-17.545-46.09-17.545-63.635,0
			L380.51,97.854c-23.731-15.897-50.62-27.396-79.51-33.31V30h15c8.284,0,15-6.716,15-15s-6.716-15-15-15c-12.802,0-107.206,0-120,0
			c-8.284,0-15,6.716-15,15s6.716,15,15,15h15v34.544c-28.89,5.914-55.779,17.413-79.51,33.311l-23.672-23.672
			c-17.545-17.545-46.09-17.545-63.635,0c-17.544,17.544-17.544,46.091,0,63.635l23.956,23.956C44.68,197.443,31,240.144,31,286
			c0,124.617,100.935,226,225,226s225-101.383,225-226C481,240.144,467.32,197.443,443.862,161.773z M425.396,95.396
			c5.848-5.847,15.361-5.847,21.209,0c5.847,5.847,5.847,15.361,0,21.209L425.58,137.63c-6.564-7.56-13.623-14.672-21.12-21.298
			L425.396,95.396z M241,30h30v30.514c-4.96-0.33-9.958-0.514-15-0.514s-10.04,0.185-15,0.514V30z M65.396,116.604
			c-5.847-5.848-5.847-15.362,0-21.209c5.848-5.847,15.361-5.847,21.209,0l20.936,20.937c-7.497,6.626-14.556,13.738-21.12,21.298
			L65.396,116.604z M256,482c-107.523,0-195-87.925-195-196c0-107.871,87.307-196,195-196c107.505,0,195,87.952,195,196
			C451,394.075,363.523,482,256,482z"/>
	</g>
</g>
<g>
	<g>
		<path d="M256,121c-90.981,0-165,74.019-165,165c0,44.042,17.164,85.619,48.33,117.072C170.594,434.624,212.028,452,256,452
			s85.406-17.376,116.67-48.928C403.836,371.619,421,330.042,421,286C421,195.019,346.981,121,256,121z M271,421.156V407
			c0-8.284-6.716-15-15-15s-15,6.716-15,15v14.156C178.484,414.162,128.718,363.994,121.825,301H136c8.284,0,15-6.716,15-15
			s-6.716-15-15-15h-14.162c6.939-62.479,56.683-112.223,119.162-119.162V166c0,8.284,6.716,15,15,15s15-6.716,15-15v-14.162
			c62.479,6.939,112.223,56.684,119.162,119.162H376c-8.284,0-15,6.716-15,15s6.716,14.9,15,14.9h14.175
			C383.282,363.894,333.516,414.162,271,421.156z"/>
	</g>
</g>
<g>
	<g>
		<path d="M316,271h-45v-45c0-8.284-6.716-15-15-15s-15,6.716-15,15v60c0,8.284,6.716,15,15,15h60c8.284,0,15-6.716,15-15
			S324.284,271,316,271z"/>
	</g>
</g>
<g>
</g>
<g>
</g>
<g>
</g>
<g>
</g>
<g>
</g>
<g>
</g>
<g>
</g>
<g>
</g>
<g>
</g>
<g>
</g>
<g>
</g>
<g>
</g>
<g>
</g>
<g>
</g>
<g>
</g>
</svg>
